<svg width="168" height="45" viewBox="0 0 168 45" fill="none" xmlns="http://www.w3.org/2000/svg">
<g clip-path="url(#clip0_1024_252)">
<path d="M62.8965 0V21.8648C62.8965 24.8096 65.2806 27.1976 68.2294 27.1976H71.0252V0H62.8965Z" fill="#BBF2FF"/>
<path d="M64.4532 31.0875C63.4925 32.0521 62.8926 33.3893 62.8926 34.8597V44.1216H71.0213V29.5308H68.2254C66.7511 29.5308 65.4178 30.1229 64.4532 31.0914V31.0875Z" fill="#BBF2FF"/>
<path d="M9.6423 21.5551C9.6423 19.8533 11.2814 18.971 13.2969 18.971C15.63 18.971 17.3946 20.167 18.3396 22.1864L25.2723 18.4064C22.8137 14.0577 18.4023 11.7246 13.2969 11.7246C6.80725 11.7246 1.32145 15.3165 1.32145 21.7433C1.32145 32.8365 17.5828 30.3151 17.5828 34.9147C17.5828 36.742 15.8182 37.6243 13.2341 37.6243C10.0815 37.6243 7.94048 36.1107 7.05821 33.5266L0 37.4988C2.27039 42.3533 6.93273 45.0001 13.2341 45.0001C19.9787 45.0001 25.8997 41.722 25.8997 34.9147C25.8997 23.3197 9.63838 26.2175 9.63838 21.5551H9.6423Z" fill="#BBF2FF"/>
<path d="M52.4503 12.6069V16.3242C50.1799 13.4892 46.7763 11.7246 42.1767 11.7246C33.7931 11.7246 26.8604 18.971 26.8604 28.3624C26.8604 37.7537 33.7931 45.0001 42.1767 45.0001C46.7763 45.0001 50.1799 43.2356 52.4503 40.3966V44.1179H60.579V34.8559H60.5633C60.5633 33.3855 59.9634 32.0483 59.0027 31.0837C58.038 30.1191 56.7048 29.5231 55.2304 29.5231H52.3836C51.8817 34.1736 48.3487 37.244 43.6903 37.244C38.7103 37.244 34.9891 33.6521 34.9891 28.3585C34.9891 23.0648 38.7103 19.473 43.6903 19.473C48.3487 19.473 51.8856 22.5433 52.3836 27.1938H55.2304C56.7048 27.1938 58.038 26.6017 59.0027 25.6332C59.9634 24.6686 60.5633 23.3314 60.5633 21.861H60.579V12.599H52.4503V12.6069Z" fill="#BBF2FF"/>
<path d="M106.206 3.78418L98.0773 6.24279V12.6069L93.9522 12.5324L87.2979 20.4219H98.0734V33.5306C98.0734 42.0397 101.916 45.3806 113.323 44.1179V36.746C108.661 36.997 106.202 36.9342 106.202 33.5306V20.4219H113.323V12.6069H106.202V3.78418H106.206Z" fill="#BBF2FF"/>
<path d="M123.452 18.026V12.6069H115.323V44.1179H123.452V29.0564C123.452 22.4374 128.808 20.5474 133.032 21.0532V11.9795C129.059 11.9795 125.091 13.744 123.452 18.0299V18.026Z" fill="#BBF2FF"/>
<path d="M159.578 12.6069V16.3242C157.308 13.4892 153.908 11.7246 149.305 11.7246C140.921 11.7246 133.988 18.971 133.988 28.3624C133.988 37.7537 140.921 45.0001 149.305 45.0001C153.904 45.0001 157.308 43.2356 159.578 40.4005V44.1179H167.707V12.6069H159.578ZM150.818 37.2479C145.838 37.2479 142.121 33.656 142.121 28.3624C142.121 23.0687 145.838 19.4769 150.818 19.4769C155.798 19.4769 159.578 23.0687 159.578 28.3624C159.578 33.656 155.861 37.2479 150.818 37.2479Z" fill="#BBF2FF"/>
<path d="M71.0254 29.5269L83.3929 44.1922H91.5609L79.1894 29.5269H71.0254Z" fill="#BBF2FF"/>
<path d="M71.0254 27.1976H79.1894L91.5609 12.5322H83.3929L71.0254 27.1976Z" fill="#BBF2FF"/>
</g>
<defs>
<clipPath id="clip0_1024_252">
<rect width="167.711" height="45" fill="white"/>
</clipPath>
</defs>
</svg>
